<mxfile host="Electron" agent="Mozilla/5.0 (Windows NT 10.0; Win64; x64) AppleWebKit/537.36 (KHTML, like Gecko) draw.io/24.7.17 Chrome/128.0.6613.36 Electron/32.0.1 Safari/537.36" version="24.7.17">
  <diagram name="Страница — 1" id="KeXtfbBmOgUQmalfRKAy">
    <mxGraphModel dx="2074" dy="1204" grid="1" gridSize="10" guides="1" tooltips="1" connect="1" arrows="1" fold="1" page="1" pageScale="1" pageWidth="827" pageHeight="1169" math="0" shadow="0">
      <root>
        <mxCell id="0" />
        <mxCell id="1" parent="0" />
        <mxCell id="y_xoNtU83_XOsgT8JAa6-1" value="host&lt;br&gt;(orange pi/banana pi)" style="whiteSpace=wrap;html=1;" parent="1" vertex="1">
          <mxGeometry x="200" y="200" width="140" height="330" as="geometry" />
        </mxCell>
        <mxCell id="y_xoNtU83_XOsgT8JAa6-2" value="FPGA" style="whiteSpace=wrap;html=1;" parent="1" vertex="1">
          <mxGeometry x="460" y="260" width="106.5" height="150" as="geometry" />
        </mxCell>
        <mxCell id="y_xoNtU83_XOsgT8JAa6-5" value="" style="shape=flexArrow;endArrow=classic;startArrow=classic;html=1;rounded=0;exitX=1.005;exitY=0.409;exitDx=0;exitDy=0;exitPerimeter=0;entryX=0;entryY=0.5;entryDx=0;entryDy=0;" parent="1" edge="1">
          <mxGeometry width="100" height="100" relative="1" as="geometry">
            <mxPoint x="340.6999999999998" y="294.97" as="sourcePoint" />
            <mxPoint x="460" y="295" as="targetPoint" />
          </mxGeometry>
        </mxCell>
        <mxCell id="y_xoNtU83_XOsgT8JAa6-6" value="spi" style="text;html=1;align=center;verticalAlign=middle;resizable=0;points=[];autosize=1;strokeColor=none;fillColor=none;fontSize=20;" parent="1" vertex="1">
          <mxGeometry x="369" y="250" width="50" height="40" as="geometry" />
        </mxCell>
        <mxCell id="d3nM6W2TzixBt_i_OOga-1" value="" style="shape=flexArrow;endArrow=classic;startArrow=classic;html=1;rounded=0;exitX=1.005;exitY=0.409;exitDx=0;exitDy=0;exitPerimeter=0;entryX=0;entryY=0.5;entryDx=0;entryDy=0;" edge="1" parent="1">
          <mxGeometry width="100" height="100" relative="1" as="geometry">
            <mxPoint x="334.5" y="387" as="sourcePoint" />
            <mxPoint x="453.5" y="387" as="targetPoint" />
          </mxGeometry>
        </mxCell>
        <mxCell id="d3nM6W2TzixBt_i_OOga-2" value="spi" style="text;html=1;align=center;verticalAlign=middle;resizable=0;points=[];autosize=1;strokeColor=none;fillColor=none;fontSize=20;" vertex="1" parent="1">
          <mxGeometry x="362.5" y="342" width="50" height="40" as="geometry" />
        </mxCell>
      </root>
    </mxGraphModel>
  </diagram>
</mxfile>
